<svg xmlns="http://www.w3.org/2000/svg" version="1.1" xmlns:xlink="http://www.w3.org/1999/xlink" xmlns:svgjs="http://svgjs.dev/svgjs" width="1000" height="270" viewBox="0 0 1000 270"><g transform="matrix(1,0,0,1,-0.6060606060606233,0.17931279322516502)"><svg viewBox="0 0 396 107" data-background-color="#047857" preserveAspectRatio="xMidYMid meet" height="270" width="1000" xmlns="http://www.w3.org/2000/svg" xmlns:xlink="http://www.w3.org/1999/xlink"><g id="tight-bounds" transform="matrix(1,0,0,1,0.2400000000000091,-0.07106099583367609)"><svg viewBox="0 0 395.52 107.14212199166734" height="107.14212199166734" width="395.52"><g><svg viewBox="0 0 613.5168087899413 166.19511724137928" height="107.14212199166734" width="395.52"><g><rect width="6.880004222002759" height="166.19511724137928" x="193.10632231138675" y="0" fill="#000000" opacity="1" stroke-width="0" stroke="transparent" fill-opacity="1" class="rect-o-0" data-fill-palette-color="primary" rx="1%" id="o-0" data-palette-color="#001f3f"></rect></g><g transform="matrix(1,0,0,1,217.9968087899412,0.41342068965516887)"><svg viewBox="0 0 395.52 165.36827586206894" height="165.36827586206894" width="395.52"><g id="textblocktransform"><svg viewBox="0 0 395.52 165.36827586206894" height="165.36827586206894" width="395.52" id="textblock"><g><svg viewBox="0 0 395.52 165.36827586206894" height="165.36827586206894" width="395.52"><g transform="matrix(1,0,0,1,0,0)"><svg width="395.52" viewBox="-0.0000019073486328125 -35.80000305175781 185.6000213623047 74.60000610351562" height="165.36827586206894" data-palette-color="#001f3f"><svg></svg><svg></svg><g class="wordmark-text-0" data-fill-palette-color="primary" id="text-0"><path xmlns="http://www.w3.org/2000/svg" d="M38.85 0v-2.15h-4.85v-32.8h-5.9v15.15h-17.35v-15.15h-5.9v34.95h5.9v-14.3h17.35v14.3zM0-2.15h4.85v2.15h-4.85zM69.4-2.15h11.45v2.15h-42v-2.15h11.45c-2.733-1.567-4.89-3.717-6.47-6.45-1.587-2.733-2.38-5.783-2.38-9.15v0c0-5.133 1.767-9.427 5.3-12.88 3.533-3.447 7.9-5.17 13.1-5.17 5.2 0 9.567 1.723 13.1 5.17 3.533 3.453 5.3 7.747 5.3 12.88v0c0 3.333-0.79 6.383-2.37 9.15-1.587 2.767-3.747 4.917-6.48 6.45zM68.63-26.7c-2.387-2.467-5.313-3.7-8.78-3.7-3.467 0-6.39 1.233-8.77 3.7-2.387 2.467-3.58 5.457-3.58 8.97 0 3.52 1.193 6.513 3.58 8.98 2.38 2.467 5.303 3.7 8.77 3.7 3.467 0 6.393-1.233 8.78-3.7 2.38-2.467 3.57-5.46 3.57-8.98 0-3.513-1.19-6.503-3.57-8.97zM108.85-2.15h10.4v2.15h-38.4v-2.15h10.35c-3.967-2.767-5.95-7.15-5.95-13.15v0-19.65h5.9v19.4c0 3.2 0.8 5.733 2.4 7.6 1.6 1.867 3.767 2.8 6.5 2.8 2.733 0 4.9-0.933 6.5-2.8 1.6-1.867 2.4-4.4 2.4-7.6v0-19.4h5.9v19.65c0 6.033-2 10.417-6 13.15zM144.5-2.15h6.25v2.15h-31.5v-2.15h6.4c-1.6-0.833-3.067-1.867-4.4-3.1v0l3.7-4.45c3.533 3.067 7.2 4.6 11 4.6v0c1.9 0 3.407-0.41 4.52-1.23 1.12-0.813 1.68-1.897 1.68-3.25 0-1.347-0.527-2.397-1.58-3.15-1.047-0.747-2.853-1.43-5.42-2.05-2.567-0.613-4.517-1.18-5.85-1.7-1.333-0.513-2.517-1.187-3.55-2.02v0c-2.067-1.567-3.1-3.967-3.1-7.2 0-3.233 1.173-5.727 3.52-7.48 2.353-1.747 5.263-2.62 8.73-2.62v0c2.233 0 4.45 0.367 6.65 1.1 2.2 0.733 4.1 1.767 5.7 3.1v0l-3.15 4.45c-1.033-0.933-2.433-1.7-4.2-2.3-1.767-0.6-3.507-0.9-5.22-0.9-1.72 0-3.13 0.35-4.23 1.05-1.1 0.7-1.65 1.757-1.65 3.17 0 1.42 0.55 2.503 1.65 3.25 1.1 0.753 3.44 1.563 7.02 2.43 3.587 0.867 6.287 2.083 8.1 3.65 1.82 1.567 2.73 3.767 2.73 6.6v0c0 3.433-1.267 6.117-3.8 8.05zM150.75-2.15h4.85v-32.8h24.55v5.55h-18.65v9.25h16.75v5.25h-16.75v9.35h19.25v3.4h4.85v2.15h-34.85z" fill="#000000" fill-rule="nonzero" stroke="none" stroke-width="1" stroke-linecap="butt" stroke-linejoin="miter" stroke-miterlimit="10" stroke-dasharray="" stroke-dashoffset="0" font-family="none" font-weight="none" font-size="none" text-anchor="none" style="mix-blend-mode: normal" data-fill-palette-color="primary" opacity="1"></path><path xmlns="http://www.w3.org/2000/svg" d="M32.8 36.65h4.85v2.15h-10.8l-8.35-11.75h-7.75v11.75h-10.75v-2.15h4.85v-32.8h13c5.333 0 9.15 0.9 11.45 2.7 2.3 1.8 3.45 4.683 3.45 8.65v0c0 5.767-2.517 9.4-7.55 10.9v0zM18.1 21.7c3.333 0 5.6-0.517 6.8-1.55 1.2-1.033 1.8-2.693 1.8-4.98 0-2.28-0.617-3.847-1.85-4.7-1.233-0.847-3.433-1.27-6.6-1.27v0h-7.5v12.5zM36.4 36.65h4.85v-32.8h24.55v5.55h-18.65v9.25h16.75v5.25h-16.75v9.35h19.25v3.4h4.85v2.15h-34.85zM69.1 36.65h4.85v-32.8h5.9l20.3 26.1v-26.1h5.9v32.8h4.85v2.15h-11.25l-19.8-25.5v25.5h-10.75zM128.95 36.65h12.15v2.15h-30.2v-2.15h12.15v-27.4h-10.6v-5.4h27.1v5.4h-10.6z" fill="#000000" fill-rule="nonzero" stroke="none" stroke-width="1" stroke-linecap="butt" stroke-linejoin="miter" stroke-miterlimit="10" stroke-dasharray="" stroke-dashoffset="0" font-family="none" font-weight="none" font-size="none" text-anchor="none" style="mix-blend-mode: normal" data-fill-palette-color="primary" opacity="1"></path></g></svg></g></svg></g></svg></g></svg></g><g transform="matrix(1,0,0,1,0,0.41342068965516887)"><svg viewBox="0 0 175.09584005483504 165.36827586206894" height="165.36827586206894" width="175.09584005483504"><g><svg xmlns="http://www.w3.org/2000/svg" viewBox="32.439998626708984 33.5 36.000003814697266 34" x="0" y="0" height="165.36827586206894" width="175.09584005483504" class="icon-icon-0" data-fill-palette-color="accent" id="icon-0"><g data-name="house money" fill="#001f3f" data-fill-palette-color="accent"><polyline class="cls-1" points="65.44 44.5 65.44 65.5 35.44 65.5 35.44 44.5" fill="none" stroke="#001f3f" stroke-linecap="round" stroke-linejoin="round"></polyline><rect class="cls-1" x="34.27" y="65.5" width="32.33" height="2" fill="none" stroke="#001f3f" stroke-linecap="round" stroke-linejoin="round"></rect><line class="cls-1" x1="68.44" y1="46.5" x2="62.6" y2="42.29" fill="none" stroke="#001f3f" stroke-linecap="round" stroke-linejoin="round"></line><polyline class="cls-1" points="58.6 39.41 50.42 33.5 32.44 46.5" fill="none" stroke="#001f3f" stroke-linecap="round" stroke-linejoin="round"></polyline><polygon class="cls-1" points="62.6 36.5 58.6 36.5 58.6 39.41 62.6 42.29 62.6 36.5" fill="none" stroke="#001f3f" stroke-linecap="round" stroke-linejoin="round"></polygon><line class="cls-1" x1="62.6" y1="42.29" x2="58.6" y2="39.41" fill="none" stroke="#001f3f" stroke-linecap="round" stroke-linejoin="round"></line><circle class="cls-1" cx="50.44" cy="52.59" r="8.0" fill="none" stroke="#001f3f" stroke-linecap="round" stroke-linejoin="round"></circle><path d="M52.51 50.11q-0.24-1-1.6-1.18v3.22a3 3 0 0 1 1.91 0.85 2.09 2.09 0 0 1 0.61 1.59 2.61 2.61 0 0 1-0.76 1.75 2.9 2.9 0 0 1-1.75 0.87v0.5a0.46 0.46 0 0 1-0.14 0.34 0.47 0.47 0 0 1-0.66 0 0.46 0.46 0 0 1-0.14-0.34V57.2a3.54 3.54 0 0 1-1.54-0.55 2.23 2.23 0 0 1-1-1.34 0.46 0.46 0 0 1 0-0.35 0.45 0.45 0 0 1 0.29-0.22 0.46 0.46 0 0 1 0.35 0 0.49 0.49 0 0 1 0.22 0.29q0.25 1 1.61 1.18V53a2.93 2.93 0 0 1-1.93-0.85 2.11 2.11 0 0 1-0.61-1.59 2.61 2.61 0 0 1 0.77-1.75A2.91 2.91 0 0 1 50 48v-0.51a0.46 0.46 0 0 1 0.14-0.34 0.47 0.47 0 0 1 0.66 0 0.46 0.46 0 0 1 0.14 0.34V48a3.53 3.53 0 0 1 1.53 0.55 2.27 2.27 0 0 1 1 1.34 0.46 0.46 0 0 1 0 0.35 0.49 0.49 0 0 1-0.29 0.22 0.44 0.44 0 0 1-0.35-0.05A0.46 0.46 0 0 1 52.51 50.11Zm-3.78 1.44a2 2 0 0 0 1.25 0.55V48.92a1.94 1.94 0 0 0-1.12 0.59 1.67 1.67 0 0 0-0.48 1.12A1.21 1.21 0 0 0 48.73 51.55Zm3.42 2.1a2 2 0 0 0-1.23-0.55v3.17A1.93 1.93 0 0 0 52 55.67a1.69 1.69 0 0 0 0.48-1.12A1.2 1.2 0 0 0 52.15 53.65Z" fill="#000000" data-fill-palette-color="accent"></path></g></svg></g></svg></g></svg></g><defs></defs></svg><rect width="395.52" height="107.14212199166734" fill="none" stroke="none" visibility="hidden"></rect></g></svg></g></svg>